<mxfile host="app.diagrams.net" modified="2024-04-26T09:02:46.100Z" agent="Mozilla/5.0 (Windows NT 10.0; Win64; x64) AppleWebKit/537.36 (KHTML, like Gecko) Chrome/123.0.0.0 Safari/537.36" etag="ehVqPqtZtBC3mPUPAIKp" version="24.3.0" type="github">
  <diagram name="Page-1" id="xq5WG-xz_9PBhKBy-I54">
    <mxGraphModel dx="2284" dy="1880" grid="1" gridSize="10" guides="1" tooltips="1" connect="1" arrows="1" fold="1" page="1" pageScale="1" pageWidth="850" pageHeight="1100" math="0" shadow="0">
      <root>
        <mxCell id="0" />
        <mxCell id="1" parent="0" />
        <mxCell id="aOajQsP4-fKAeHu_HTNc-1" value="" style="rounded=1;whiteSpace=wrap;html=1;" vertex="1" parent="1">
          <mxGeometry x="-310" y="-490" width="1220" height="790" as="geometry" />
        </mxCell>
        <mxCell id="aOajQsP4-fKAeHu_HTNc-2" value="" style="rounded=1;whiteSpace=wrap;html=1;fillColor=#eeeeee;strokeColor=#36393d;" vertex="1" parent="1">
          <mxGeometry x="-170" y="-480" width="510" height="290" as="geometry" />
        </mxCell>
        <mxCell id="aOajQsP4-fKAeHu_HTNc-3" value="" style="rounded=1;whiteSpace=wrap;html=1;fillColor=#eeeeee;strokeColor=#36393d;" vertex="1" parent="1">
          <mxGeometry x="430" y="-480" width="410" height="290" as="geometry" />
        </mxCell>
        <object label="Actor" caller="initiator" id="aOajQsP4-fKAeHu_HTNc-4">
          <mxCell style="shape=umlActor;verticalLabelPosition=bottom;verticalAlign=top;html=1;outlineConnect=0;fillColor=#f9f7ed;strokeColor=#36393d;" vertex="1" parent="1">
            <mxGeometry x="-240" y="-50" width="30" height="60" as="geometry" />
          </mxCell>
        </object>
        <mxCell id="aOajQsP4-fKAeHu_HTNc-5" value="Actor" style="shape=umlActor;verticalLabelPosition=bottom;verticalAlign=top;html=1;outlineConnect=0;fillColor=#f9f7ed;strokeColor=#36393d;" vertex="1" parent="1">
          <mxGeometry x="820" y="-50" width="30" height="60" as="geometry" />
        </mxCell>
        <mxCell id="aOajQsP4-fKAeHu_HTNc-8" value="" style="endArrow=classic;html=1;rounded=0;fillColor=#d80073;strokeColor=#A50040;entryX=0.239;entryY=1;entryDx=0;entryDy=0;entryPerimeter=0;" edge="1" parent="1" target="aOajQsP4-fKAeHu_HTNc-28">
          <mxGeometry width="50" height="50" relative="1" as="geometry">
            <mxPoint x="-220" y="-40" as="sourcePoint" />
            <mxPoint x="-45" y="-152" as="targetPoint" />
            <Array as="points">
              <mxPoint x="-220" y="-120" />
              <mxPoint x="-170" y="-120" />
              <mxPoint x="-48" y="-120" />
            </Array>
          </mxGeometry>
        </mxCell>
        <mxCell id="aOajQsP4-fKAeHu_HTNc-9" value="" style="endArrow=classic;html=1;rounded=0;exitX=0.25;exitY=0.1;exitDx=0;exitDy=0;exitPerimeter=0;entryX=0.578;entryY=1.067;entryDx=0;entryDy=0;entryPerimeter=0;fillColor=#d80073;strokeColor=#A50040;" edge="1" parent="1" source="aOajQsP4-fKAeHu_HTNc-5" target="aOajQsP4-fKAeHu_HTNc-28">
          <mxGeometry width="50" height="50" relative="1" as="geometry">
            <mxPoint x="320" y="-90" as="sourcePoint" />
            <mxPoint x="370" y="-140" as="targetPoint" />
            <Array as="points">
              <mxPoint x="828" y="-120" />
              <mxPoint x="800" y="-120" />
              <mxPoint x="280" y="-120" />
              <mxPoint x="125" y="-120" />
            </Array>
          </mxGeometry>
        </mxCell>
        <mxCell id="aOajQsP4-fKAeHu_HTNc-10" value="SFU&lt;div&gt;ROOMID&lt;/div&gt;" style="rounded=1;whiteSpace=wrap;html=1;fillColor=#f9f7ed;strokeColor=#36393d;" vertex="1" parent="1">
          <mxGeometry x="-150" y="-70" width="160" height="60" as="geometry" />
        </mxCell>
        <mxCell id="aOajQsP4-fKAeHu_HTNc-11" value="SFU" style="rounded=1;whiteSpace=wrap;html=1;fillColor=#f9f7ed;strokeColor=#36393d;" vertex="1" parent="1">
          <mxGeometry x="30" y="-70" width="140" height="60" as="geometry" />
        </mxCell>
        <mxCell id="aOajQsP4-fKAeHu_HTNc-14" value="&lt;div&gt;PORT1&lt;/div&gt;&lt;div&gt;PORT2&lt;/div&gt;&lt;div&gt;PORT3&lt;/div&gt;" style="rounded=1;whiteSpace=wrap;html=1;fillColor=#ffcc99;strokeColor=#36393d;" vertex="1" parent="1">
          <mxGeometry x="-40" y="-70" width="50" height="60" as="geometry" />
        </mxCell>
        <mxCell id="aOajQsP4-fKAeHu_HTNc-17" value="&lt;div&gt;SFU&lt;/div&gt;ROOMID&lt;div&gt;&lt;br&gt;&lt;/div&gt;" style="rounded=1;whiteSpace=wrap;html=1;fillColor=#f9f7ed;strokeColor=#36393d;" vertex="1" parent="1">
          <mxGeometry x="450" y="-70" width="160" height="60" as="geometry" />
        </mxCell>
        <mxCell id="aOajQsP4-fKAeHu_HTNc-18" value="SFU" style="rounded=1;whiteSpace=wrap;html=1;fillColor=#f9f7ed;strokeColor=#36393d;" vertex="1" parent="1">
          <mxGeometry x="630" y="-70" width="120" height="60" as="geometry" />
        </mxCell>
        <mxCell id="aOajQsP4-fKAeHu_HTNc-21" value="&lt;div&gt;PORT1&lt;/div&gt;&lt;div&gt;PORT2&lt;/div&gt;&lt;div&gt;PORT3&lt;/div&gt;" style="rounded=1;whiteSpace=wrap;html=1;fillColor=#ffcc99;strokeColor=#36393d;" vertex="1" parent="1">
          <mxGeometry x="120" y="-70" width="50" height="60" as="geometry" />
        </mxCell>
        <mxCell id="aOajQsP4-fKAeHu_HTNc-22" value="&lt;div&gt;PORT1&lt;/div&gt;&lt;div&gt;PORT2&lt;/div&gt;&lt;div&gt;PORT3&lt;/div&gt;" style="rounded=1;whiteSpace=wrap;html=1;fillColor=#ffcc99;strokeColor=#36393d;" vertex="1" parent="1">
          <mxGeometry x="560" y="-70" width="50" height="60" as="geometry" />
        </mxCell>
        <mxCell id="aOajQsP4-fKAeHu_HTNc-23" value="&lt;div&gt;PORT1&lt;/div&gt;&lt;div&gt;PORT2&lt;/div&gt;&lt;div&gt;PORT3&lt;/div&gt;" style="rounded=1;whiteSpace=wrap;html=1;fillColor=#ffcc99;strokeColor=#36393d;" vertex="1" parent="1">
          <mxGeometry x="720" y="-70" width="60" height="60" as="geometry" />
        </mxCell>
        <mxCell id="aOajQsP4-fKAeHu_HTNc-24" value="" style="endArrow=none;dashed=1;html=1;dashPattern=1 3;strokeWidth=2;rounded=0;exitX=1;exitY=0.25;exitDx=0;exitDy=0;entryX=0;entryY=0.25;entryDx=0;entryDy=0;" edge="1" parent="1" source="aOajQsP4-fKAeHu_HTNc-2" target="aOajQsP4-fKAeHu_HTNc-3">
          <mxGeometry width="50" height="50" relative="1" as="geometry">
            <mxPoint x="320" y="-80" as="sourcePoint" />
            <mxPoint x="370" y="-130" as="targetPoint" />
          </mxGeometry>
        </mxCell>
        <mxCell id="aOajQsP4-fKAeHu_HTNc-27" value="initiator&lt;div&gt;invite&lt;/div&gt;" style="text;html=1;align=center;verticalAlign=middle;whiteSpace=wrap;rounded=0;" vertex="1" parent="1">
          <mxGeometry x="-300" y="-130" width="100" height="90" as="geometry" />
        </mxCell>
        <mxCell id="aOajQsP4-fKAeHu_HTNc-28" value="网关 Nginx" style="rounded=1;whiteSpace=wrap;html=1;fillColor=#eeeeee;strokeColor=#36393d;" vertex="1" parent="1">
          <mxGeometry x="-170" y="-188" width="510" height="30" as="geometry" />
        </mxCell>
        <mxCell id="aOajQsP4-fKAeHu_HTNc-196" value="" style="edgeStyle=orthogonalEdgeStyle;rounded=0;orthogonalLoop=1;jettySize=auto;html=1;" edge="1" parent="1" source="aOajQsP4-fKAeHu_HTNc-29" target="aOajQsP4-fKAeHu_HTNc-42">
          <mxGeometry relative="1" as="geometry" />
        </mxCell>
        <mxCell id="aOajQsP4-fKAeHu_HTNc-29" value="signal server&lt;div&gt;ROOMID&lt;/div&gt;" style="rounded=1;whiteSpace=wrap;html=1;fillColor=#f8cecc;strokeColor=#b85450;" vertex="1" parent="1">
          <mxGeometry x="-130" y="-280" width="80" height="60" as="geometry" />
        </mxCell>
        <mxCell id="aOajQsP4-fKAeHu_HTNc-31" value="signal server&lt;div&gt;ROOMID&lt;/div&gt;" style="rounded=1;whiteSpace=wrap;html=1;fillColor=#f8cecc;strokeColor=#b85450;" vertex="1" parent="1">
          <mxGeometry x="-50" y="-280" width="80" height="60" as="geometry" />
        </mxCell>
        <mxCell id="aOajQsP4-fKAeHu_HTNc-34" value="VOD&lt;div&gt;&lt;br&gt;&lt;/div&gt;" style="rounded=1;whiteSpace=wrap;html=1;fillColor=#f9f7ed;strokeColor=#36393d;" vertex="1" parent="1">
          <mxGeometry x="30" y="-367" width="70" height="40" as="geometry" />
        </mxCell>
        <mxCell id="aOajQsP4-fKAeHu_HTNc-35" value="VOD&lt;div&gt;&lt;br&gt;&lt;/div&gt;" style="rounded=1;whiteSpace=wrap;html=1;fillColor=#f9f7ed;strokeColor=#36393d;" vertex="1" parent="1">
          <mxGeometry x="102" y="-367" width="70" height="40" as="geometry" />
        </mxCell>
        <mxCell id="aOajQsP4-fKAeHu_HTNc-36" value="分布式存储&lt;div&gt;roomid&lt;/div&gt;" style="rounded=1;whiteSpace=wrap;html=1;fillColor=#f9f7ed;strokeColor=#36393d;" vertex="1" parent="1">
          <mxGeometry x="30" y="-420" width="70" height="40" as="geometry" />
        </mxCell>
        <mxCell id="aOajQsP4-fKAeHu_HTNc-38" value="分布式存储&lt;div&gt;roomid&lt;/div&gt;" style="rounded=1;whiteSpace=wrap;html=1;fillColor=#f9f7ed;strokeColor=#36393d;" vertex="1" parent="1">
          <mxGeometry x="102" y="-420" width="70" height="40" as="geometry" />
        </mxCell>
        <mxCell id="aOajQsP4-fKAeHu_HTNc-39" value="" style="endArrow=classic;html=1;rounded=0;entryX=0;entryY=0.5;entryDx=0;entryDy=0;strokeWidth=2;" edge="1" parent="1" target="aOajQsP4-fKAeHu_HTNc-10">
          <mxGeometry width="50" height="50" relative="1" as="geometry">
            <mxPoint x="-210" y="-30" as="sourcePoint" />
            <mxPoint x="-160" y="-80" as="targetPoint" />
            <Array as="points">
              <mxPoint x="-170" y="-40" />
            </Array>
          </mxGeometry>
        </mxCell>
        <mxCell id="aOajQsP4-fKAeHu_HTNc-40" value="&lt;div&gt;转码服务&lt;/div&gt;&lt;div&gt;roomi&lt;span style=&quot;color: rgba(0, 0, 0, 0); font-family: monospace; font-size: 0px; text-align: start; text-wrap: nowrap; background-color: initial;&quot;&gt;%3CmxGraphModel%3E%3Croot%3E%3CmxCell%20id%3D%220%22%2F%3E%3CmxCell%20id%3D%221%22%20parent%3D%220%22%2F%3E%3CmxCell%20id%3D%222%22%20value%3D%22%E5%88%86%E5%B8%83%E5%BC%8F%E5%AD%98%E5%82%A8%26lt%3Bdiv%26gt%3Broomid%26lt%3B%2Fdiv%26gt%3B%22%20style%3D%22rounded%3D1%3BwhiteSpace%3Dwrap%3Bhtml%3D1%3B%22%20vertex%3D%221%22%20parent%3D%221%22%3E%3CmxGeometry%20x%3D%2210%22%20y%3D%22-420%22%20width%3D%2290%22%20height%3D%2240%22%20as%3D%22geometry%22%2F%3E%3C%2FmxCell%3E%3C%2Froot%3E%3C%2FmxGraphModel%3E&lt;/span&gt;&lt;span style=&quot;background-color: initial;&quot;&gt;d/&lt;/span&gt;&lt;/div&gt;" style="rounded=1;whiteSpace=wrap;html=1;fillColor=#f9f7ed;strokeColor=#36393d;" vertex="1" parent="1">
          <mxGeometry x="-130" y="-420" width="60" height="40" as="geometry" />
        </mxCell>
        <mxCell id="aOajQsP4-fKAeHu_HTNc-42" value="&lt;div&gt;转码服务&lt;/div&gt;&lt;div&gt;roomi&lt;span style=&quot;color: rgba(0, 0, 0, 0); font-family: monospace; font-size: 0px; text-align: start; text-wrap: nowrap; background-color: initial;&quot;&gt;%3CmxGraphModel%3E%3Croot%3E%3CmxCell%20id%3D%220%22%2F%3E%3CmxCell%20id%3D%221%22%20parent%3D%220%22%2F%3E%3CmxCell%20id%3D%222%22%20value%3D%22%E5%88%86%E5%B8%83%E5%BC%8F%E5%AD%98%E5%82%A8%26lt%3Bdiv%26gt%3Broomid%26lt%3B%2Fdiv%26gt%3B%22%20style%3D%22rounded%3D1%3BwhiteSpace%3Dwrap%3Bhtml%3D1%3B%22%20vertex%3D%221%22%20parent%3D%221%22%3E%3CmxGeometry%20x%3D%2210%22%20y%3D%22-420%22%20width%3D%2290%22%20height%3D%2240%22%20as%3D%22geometry%22%2F%3E%3C%2FmxCell%3E%3C%2Froot%3E%3C%2FmxGraphModel%3E&lt;/span&gt;&lt;span style=&quot;background-color: initial;&quot;&gt;d/&lt;/span&gt;&lt;/div&gt;" style="rounded=1;whiteSpace=wrap;html=1;fillColor=#f9f7ed;strokeColor=#36393d;" vertex="1" parent="1">
          <mxGeometry x="-70" y="-420" width="60" height="40" as="geometry" />
        </mxCell>
        <mxCell id="aOajQsP4-fKAeHu_HTNc-43" value="用户系统&lt;br&gt;&lt;div&gt;&lt;br&gt;&lt;/div&gt;" style="rounded=1;whiteSpace=wrap;html=1;fillColor=#f9f7ed;strokeColor=#36393d;" vertex="1" parent="1">
          <mxGeometry x="50" y="-280" width="70" height="40" as="geometry" />
        </mxCell>
        <mxCell id="aOajQsP4-fKAeHu_HTNc-45" value="用户系统&lt;br&gt;&lt;div&gt;&lt;br&gt;&lt;/div&gt;" style="rounded=1;whiteSpace=wrap;html=1;fillColor=#f9f7ed;strokeColor=#36393d;" vertex="1" parent="1">
          <mxGeometry x="120" y="-280" width="70" height="40" as="geometry" />
        </mxCell>
        <mxCell id="aOajQsP4-fKAeHu_HTNc-46" value="&lt;div&gt;混流服务&lt;/div&gt;&lt;div&gt;roomi&lt;span style=&quot;color: rgba(0, 0, 0, 0); font-family: monospace; font-size: 0px; text-align: start; text-wrap: nowrap; background-color: initial;&quot;&gt;%3CmxGraphModel%3E%3Croot%3E%3CmxCell%20id%3D%220%22%2F%3E%3CmxCell%20id%3D%221%22%20parent%3D%220%22%2F%3E%3CmxCell%20id%3D%222%22%20value%3D%22%E5%88%86%E5%B8%83%E5%BC%8F%E5%AD%98%E5%82%A8%26lt%3Bdiv%26gt%3Broomid%26lt%3B%2Fdiv%26gt%3B%22%20style%3D%22rounded%3D1%3BwhiteSpace%3Dwrap%3Bhtml%3D1%3B%22%20vertex%3D%221%22%20parent%3D%221%22%3E%3CmxGeometry%20x%3D%2210%22%20y%3D%22-420%22%20width%3D%2290%22%20height%3D%2240%22%20as%3D%22geometry%22%2F%3E%3C%2FmxCell%3E%3C%2Froot%3E%3C%2FmxGraphModel%3E&lt;/span&gt;&lt;span style=&quot;background-color: initial;&quot;&gt;d/&lt;/span&gt;&lt;/div&gt;" style="rounded=1;whiteSpace=wrap;html=1;fillColor=#f9f7ed;strokeColor=#36393d;" vertex="1" parent="1">
          <mxGeometry x="-130" y="-460" width="60" height="40" as="geometry" />
        </mxCell>
        <mxCell id="aOajQsP4-fKAeHu_HTNc-47" value="&lt;div&gt;混流服务&lt;/div&gt;&lt;div&gt;roomi&lt;span style=&quot;color: rgba(0, 0, 0, 0); font-family: monospace; font-size: 0px; text-align: start; text-wrap: nowrap; background-color: initial;&quot;&gt;%3CmxGraphModel%3E%3Croot%3E%3CmxCell%20id%3D%220%22%2F%3E%3CmxCell%20id%3D%221%22%20parent%3D%220%22%2F%3E%3CmxCell%20id%3D%222%22%20value%3D%22%E5%88%86%E5%B8%83%E5%BC%8F%E5%AD%98%E5%82%A8%26lt%3Bdiv%26gt%3Broomid%26lt%3B%2Fdiv%26gt%3B%22%20style%3D%22rounded%3D1%3BwhiteSpace%3Dwrap%3Bhtml%3D1%3B%22%20vertex%3D%221%22%20parent%3D%221%22%3E%3CmxGeometry%20x%3D%2210%22%20y%3D%22-420%22%20width%3D%2290%22%20height%3D%2240%22%20as%3D%22geometry%22%2F%3E%3C%2FmxCell%3E%3C%2Froot%3E%3C%2FmxGraphModel%3E&lt;/span&gt;&lt;span style=&quot;background-color: initial;&quot;&gt;d/&lt;/span&gt;&lt;/div&gt;" style="rounded=1;whiteSpace=wrap;html=1;fillColor=#f9f7ed;strokeColor=#36393d;" vertex="1" parent="1">
          <mxGeometry x="-70" y="-460" width="60" height="40" as="geometry" />
        </mxCell>
        <mxCell id="aOajQsP4-fKAeHu_HTNc-48" value="" style="endArrow=classic;html=1;rounded=0;exitX=0.5;exitY=1;exitDx=0;exitDy=0;entryX=0.429;entryY=1;entryDx=0;entryDy=0;entryPerimeter=0;strokeWidth=2;" edge="1" parent="1" source="aOajQsP4-fKAeHu_HTNc-199" target="aOajQsP4-fKAeHu_HTNc-17">
          <mxGeometry width="50" height="50" relative="1" as="geometry">
            <mxPoint x="-40" y="70" as="sourcePoint" />
            <mxPoint x="20" y="20" as="targetPoint" />
            <Array as="points">
              <mxPoint x="519" y="40" />
            </Array>
          </mxGeometry>
        </mxCell>
        <mxCell id="aOajQsP4-fKAeHu_HTNc-49" value="" style="endArrow=classic;html=1;rounded=0;exitX=0.5;exitY=0;exitDx=0;exitDy=0;entryX=0.25;entryY=0.1;entryDx=0;entryDy=0;entryPerimeter=0;strokeWidth=2;" edge="1" parent="1" source="aOajQsP4-fKAeHu_HTNc-17" target="aOajQsP4-fKAeHu_HTNc-5">
          <mxGeometry width="50" height="50" relative="1" as="geometry">
            <mxPoint x="320" y="-180" as="sourcePoint" />
            <mxPoint x="370" y="-230" as="targetPoint" />
            <Array as="points">
              <mxPoint x="530" y="-90" />
              <mxPoint x="670" y="-90" />
              <mxPoint x="800" y="-90" />
              <mxPoint x="800" y="-44" />
            </Array>
          </mxGeometry>
        </mxCell>
        <mxCell id="aOajQsP4-fKAeHu_HTNc-50" value="路由系统" style="rounded=1;whiteSpace=wrap;html=1;fillColor=#f9f7ed;strokeColor=#36393d;" vertex="1" parent="1">
          <mxGeometry x="198" y="-280" width="70" height="60" as="geometry" />
        </mxCell>
        <mxCell id="aOajQsP4-fKAeHu_HTNc-51" value="路由系统" style="rounded=1;whiteSpace=wrap;html=1;fillColor=#f9f7ed;strokeColor=#36393d;" vertex="1" parent="1">
          <mxGeometry x="268" y="-280" width="70" height="60" as="geometry" />
        </mxCell>
        <mxCell id="aOajQsP4-fKAeHu_HTNc-52" value="" style="endArrow=classic;startArrow=classic;html=1;rounded=0;exitX=0.5;exitY=0;exitDx=0;exitDy=0;entryX=0.5;entryY=0;entryDx=0;entryDy=0;fillColor=#d80073;strokeColor=#A50040;" edge="1" parent="1" source="aOajQsP4-fKAeHu_HTNc-31" target="aOajQsP4-fKAeHu_HTNc-50">
          <mxGeometry width="50" height="50" relative="1" as="geometry">
            <mxPoint x="320" y="-180" as="sourcePoint" />
            <mxPoint x="370" y="-230" as="targetPoint" />
            <Array as="points">
              <mxPoint x="-10" y="-300" />
              <mxPoint x="110" y="-300" />
              <mxPoint x="233" y="-300" />
            </Array>
          </mxGeometry>
        </mxCell>
        <mxCell id="aOajQsP4-fKAeHu_HTNc-56" value="" style="endArrow=classic;html=1;rounded=0;exitX=0.5;exitY=1;exitDx=0;exitDy=0;entryX=0.5;entryY=0;entryDx=0;entryDy=0;fillColor=#d80073;strokeColor=#A50040;" edge="1" parent="1" source="aOajQsP4-fKAeHu_HTNc-31" target="aOajQsP4-fKAeHu_HTNc-14">
          <mxGeometry width="50" height="50" relative="1" as="geometry">
            <mxPoint x="320" y="-180" as="sourcePoint" />
            <mxPoint x="370" y="-230" as="targetPoint" />
            <Array as="points">
              <mxPoint x="-15" y="-210" />
            </Array>
          </mxGeometry>
        </mxCell>
        <mxCell id="aOajQsP4-fKAeHu_HTNc-57" value="" style="endArrow=classic;html=1;rounded=0;exitX=0.75;exitY=1;exitDx=0;exitDy=0;entryX=0.25;entryY=0;entryDx=0;entryDy=0;fillColor=#d80073;strokeColor=#A50040;" edge="1" parent="1" source="aOajQsP4-fKAeHu_HTNc-31" target="aOajQsP4-fKAeHu_HTNc-17">
          <mxGeometry width="50" height="50" relative="1" as="geometry">
            <mxPoint x="320" y="-180" as="sourcePoint" />
            <mxPoint x="370" y="-230" as="targetPoint" />
            <Array as="points">
              <mxPoint x="10" y="-90" />
              <mxPoint x="490" y="-90" />
            </Array>
          </mxGeometry>
        </mxCell>
        <mxCell id="aOajQsP4-fKAeHu_HTNc-58" value="Actor" style="shape=umlActor;verticalLabelPosition=bottom;verticalAlign=top;html=1;outlineConnect=0;fillColor=#f9f7ed;strokeColor=#36393d;" vertex="1" parent="1">
          <mxGeometry x="-240" y="70" width="30" height="60" as="geometry" />
        </mxCell>
        <mxCell id="aOajQsP4-fKAeHu_HTNc-59" value="" style="endArrow=classic;html=1;rounded=0;exitX=1;exitY=0.3333333333333333;exitDx=0;exitDy=0;exitPerimeter=0;strokeWidth=2;" edge="1" parent="1" source="aOajQsP4-fKAeHu_HTNc-58">
          <mxGeometry width="50" height="50" relative="1" as="geometry">
            <mxPoint x="320" y="-80" as="sourcePoint" />
            <mxPoint x="-140" y="-10" as="targetPoint" />
            <Array as="points">
              <mxPoint x="-140" y="90" />
              <mxPoint x="-140" />
            </Array>
          </mxGeometry>
        </mxCell>
        <mxCell id="aOajQsP4-fKAeHu_HTNc-63" style="edgeStyle=orthogonalEdgeStyle;rounded=0;orthogonalLoop=1;jettySize=auto;html=1;entryX=0.25;entryY=1;entryDx=0;entryDy=0;strokeWidth=2;" edge="1" parent="1" source="aOajQsP4-fKAeHu_HTNc-62" target="aOajQsP4-fKAeHu_HTNc-10">
          <mxGeometry relative="1" as="geometry" />
        </mxCell>
        <mxCell id="aOajQsP4-fKAeHu_HTNc-62" value="Actor" style="shape=umlActor;verticalLabelPosition=bottom;verticalAlign=top;html=1;outlineConnect=0;fillColor=#f9f7ed;strokeColor=#36393d;" vertex="1" parent="1">
          <mxGeometry x="-240" y="190" width="30" height="60" as="geometry" />
        </mxCell>
        <mxCell id="aOajQsP4-fKAeHu_HTNc-66" value="" style="endArrow=classic;startArrow=classic;html=1;rounded=0;entryX=0.5;entryY=1;entryDx=0;entryDy=0;exitX=0.138;exitY=0.017;exitDx=0;exitDy=0;exitPerimeter=0;fillColor=#d80073;strokeColor=#A50040;" edge="1" parent="1" source="aOajQsP4-fKAeHu_HTNc-31" target="aOajQsP4-fKAeHu_HTNc-42">
          <mxGeometry width="50" height="50" relative="1" as="geometry">
            <mxPoint x="320" y="-200" as="sourcePoint" />
            <mxPoint x="370" y="-250" as="targetPoint" />
          </mxGeometry>
        </mxCell>
        <mxCell id="aOajQsP4-fKAeHu_HTNc-67" value="" style="endArrow=classic;html=1;rounded=0;exitX=0.256;exitY=0;exitDx=0;exitDy=0;entryX=0.196;entryY=1.1;entryDx=0;entryDy=0;entryPerimeter=0;strokeWidth=2;exitPerimeter=0;" edge="1" parent="1" source="aOajQsP4-fKAeHu_HTNc-10">
          <mxGeometry width="50" height="50" relative="1" as="geometry">
            <mxPoint x="-109" y="-75" as="sourcePoint" />
            <mxPoint x="-109.03999999999996" y="-152" as="targetPoint" />
          </mxGeometry>
        </mxCell>
        <mxCell id="aOajQsP4-fKAeHu_HTNc-68" value="" style="endArrow=classic;html=1;rounded=0;exitX=0;exitY=0.5;exitDx=0;exitDy=0;entryX=0.12;entryY=0.967;entryDx=0;entryDy=0;entryPerimeter=0;strokeWidth=2;" edge="1" parent="1" source="aOajQsP4-fKAeHu_HTNc-17" target="aOajQsP4-fKAeHu_HTNc-28">
          <mxGeometry width="50" height="50" relative="1" as="geometry">
            <mxPoint x="320" y="-100" as="sourcePoint" />
            <mxPoint x="370" y="-150" as="targetPoint" />
            <Array as="points">
              <mxPoint x="430" y="-40" />
              <mxPoint x="430" y="-100" />
              <mxPoint x="160" y="-100" />
              <mxPoint x="-109" y="-100" />
            </Array>
          </mxGeometry>
        </mxCell>
        <mxCell id="aOajQsP4-fKAeHu_HTNc-69" value="" style="endArrow=classic;html=1;rounded=0;exitX=0.112;exitY=1.007;exitDx=0;exitDy=0;exitPerimeter=0;entryX=0.25;entryY=1;entryDx=0;entryDy=0;strokeWidth=2;" edge="1" parent="1" source="aOajQsP4-fKAeHu_HTNc-2" target="aOajQsP4-fKAeHu_HTNc-40">
          <mxGeometry width="50" height="50" relative="1" as="geometry">
            <mxPoint x="320" y="-100" as="sourcePoint" />
            <mxPoint x="370" y="-150" as="targetPoint" />
            <Array as="points">
              <mxPoint x="-150" y="-220" />
              <mxPoint x="-150" y="-340" />
              <mxPoint x="-115" y="-340" />
            </Array>
          </mxGeometry>
        </mxCell>
        <mxCell id="aOajQsP4-fKAeHu_HTNc-70" value="深圳" style="rounded=1;whiteSpace=wrap;html=1;fillColor=#ffcc99;strokeColor=#36393d;" vertex="1" parent="1">
          <mxGeometry x="198" y="-460" width="120" height="60" as="geometry" />
        </mxCell>
        <mxCell id="aOajQsP4-fKAeHu_HTNc-71" value="澳洲" style="rounded=1;whiteSpace=wrap;html=1;fillColor=#ffcc99;strokeColor=#36393d;" vertex="1" parent="1">
          <mxGeometry x="620" y="-460" width="120" height="60" as="geometry" />
        </mxCell>
        <mxCell id="aOajQsP4-fKAeHu_HTNc-73" value="" style="rounded=1;whiteSpace=wrap;html=1;" vertex="1" parent="1">
          <mxGeometry x="-310" y="380" width="1197" height="670" as="geometry" />
        </mxCell>
        <mxCell id="aOajQsP4-fKAeHu_HTNc-74" value="" style="rounded=1;whiteSpace=wrap;html=1;fillColor=#eeeeee;strokeColor=#36393d;" vertex="1" parent="1">
          <mxGeometry x="32" y="410" width="510" height="290" as="geometry" />
        </mxCell>
        <object label="Actor" caller="initiator" id="aOajQsP4-fKAeHu_HTNc-76">
          <mxCell style="shape=umlActor;verticalLabelPosition=bottom;verticalAlign=top;html=1;outlineConnect=0;" vertex="1" parent="1">
            <mxGeometry x="-240" y="840" width="30" height="60" as="geometry" />
          </mxCell>
        </object>
        <mxCell id="aOajQsP4-fKAeHu_HTNc-77" value="Actor" style="shape=umlActor;verticalLabelPosition=bottom;verticalAlign=top;html=1;outlineConnect=0;" vertex="1" parent="1">
          <mxGeometry x="820" y="840" width="30" height="60" as="geometry" />
        </mxCell>
        <mxCell id="aOajQsP4-fKAeHu_HTNc-80" value="SFU&lt;div&gt;ROOMID&lt;/div&gt;" style="rounded=1;whiteSpace=wrap;html=1;fillColor=#eeeeee;strokeColor=#36393d;" vertex="1" parent="1">
          <mxGeometry x="131" y="810" width="300" height="120" as="geometry" />
        </mxCell>
        <mxCell id="aOajQsP4-fKAeHu_HTNc-89" value="initiator&lt;div&gt;invite&lt;/div&gt;" style="text;html=1;align=center;verticalAlign=middle;whiteSpace=wrap;rounded=0;" vertex="1" parent="1">
          <mxGeometry x="-300" y="760" width="100" height="90" as="geometry" />
        </mxCell>
        <mxCell id="aOajQsP4-fKAeHu_HTNc-90" value="网关 Nginx" style="rounded=1;whiteSpace=wrap;html=1;fillColor=#eeeeee;strokeColor=#36393d;" vertex="1" parent="1">
          <mxGeometry x="32" y="702" width="510" height="30" as="geometry" />
        </mxCell>
        <mxCell id="aOajQsP4-fKAeHu_HTNc-91" value="signal server&lt;div&gt;ROOMID&lt;/div&gt;" style="rounded=1;whiteSpace=wrap;html=1;fillColor=#fad7ac;strokeColor=#b46504;" vertex="1" parent="1">
          <mxGeometry x="32" y="610" width="100" height="60" as="geometry" />
        </mxCell>
        <mxCell id="aOajQsP4-fKAeHu_HTNc-99" value="&lt;div&gt;实时转码服务&lt;/div&gt;&lt;div&gt;roomi&lt;span style=&quot;color: rgba(0, 0, 0, 0); font-family: monospace; font-size: 0px; text-align: start; text-wrap: nowrap; background-color: initial;&quot;&gt;%3CmxGraphModel%3E%3Croot%3E%3CmxCell%20id%3D%220%22%2F%3E%3CmxCell%20id%3D%221%22%20parent%3D%220%22%2F%3E%3CmxCell%20id%3D%222%22%20value%3D%22%E5%88%86%E5%B8%83%E5%BC%8F%E5%AD%98%E5%82%A8%26lt%3Bdiv%26gt%3Broomid%26lt%3B%2Fdiv%26gt%3B%22%20style%3D%22rounded%3D1%3BwhiteSpace%3Dwrap%3Bhtml%3D1%3B%22%20vertex%3D%221%22%20parent%3D%221%22%3E%3CmxGeometry%20x%3D%2210%22%20y%3D%22-420%22%20width%3D%2290%22%20height%3D%2240%22%20as%3D%22geometry%22%2F%3E%3C%2FmxCell%3E%3C%2Froot%3E%3C%2FmxGraphModel%3E&lt;/span&gt;&lt;span style=&quot;background-color: initial;&quot;&gt;d/&lt;/span&gt;&lt;/div&gt;" style="rounded=1;whiteSpace=wrap;html=1;fillColor=#ffcc99;strokeColor=#36393d;" vertex="1" parent="1">
          <mxGeometry x="238" y="470" width="98" height="40" as="geometry" />
        </mxCell>
        <mxCell id="aOajQsP4-fKAeHu_HTNc-120" value="深圳" style="rounded=1;whiteSpace=wrap;html=1;fillColor=#ffcc99;strokeColor=#36393d;" vertex="1" parent="1">
          <mxGeometry x="400" y="430" width="120" height="60" as="geometry" />
        </mxCell>
        <mxCell id="aOajQsP4-fKAeHu_HTNc-122" value="" style="rounded=1;whiteSpace=wrap;html=1;fillColor=#eeeeee;strokeColor=#36393d;" vertex="1" parent="1">
          <mxGeometry x="-149" y="882" width="190" height="130" as="geometry" />
        </mxCell>
        <mxCell id="aOajQsP4-fKAeHu_HTNc-123" value="H265&lt;div&gt;软编解&lt;/div&gt;" style="rounded=1;whiteSpace=wrap;html=1;fillColor=#ffcc99;strokeColor=#36393d;" vertex="1" parent="1">
          <mxGeometry x="-139" y="884" width="80" height="50" as="geometry" />
        </mxCell>
        <mxCell id="aOajQsP4-fKAeHu_HTNc-124" value="H264&lt;div&gt;软编解&lt;/div&gt;" style="rounded=1;whiteSpace=wrap;html=1;" vertex="1" parent="1">
          <mxGeometry x="-139" y="942" width="80" height="50" as="geometry" />
        </mxCell>
        <mxCell id="aOajQsP4-fKAeHu_HTNc-125" value="H265&lt;div&gt;硬编解&lt;/div&gt;" style="rounded=1;whiteSpace=wrap;html=1;fillColor=#ffcc99;strokeColor=#36393d;" vertex="1" parent="1">
          <mxGeometry x="-49" y="884" width="80" height="50" as="geometry" />
        </mxCell>
        <mxCell id="aOajQsP4-fKAeHu_HTNc-126" value="H264&lt;div&gt;硬编解&lt;/div&gt;" style="rounded=1;whiteSpace=wrap;html=1;" vertex="1" parent="1">
          <mxGeometry x="-49" y="942" width="80" height="50" as="geometry" />
        </mxCell>
        <mxCell id="aOajQsP4-fKAeHu_HTNc-127" value="" style="rounded=1;whiteSpace=wrap;html=1;fillColor=#eeeeee;strokeColor=#36393d;" vertex="1" parent="1">
          <mxGeometry x="520" y="882" width="190" height="130" as="geometry" />
        </mxCell>
        <mxCell id="aOajQsP4-fKAeHu_HTNc-128" value="H265&lt;div&gt;软编解&lt;/div&gt;" style="rounded=1;whiteSpace=wrap;html=1;fillColor=#ffcc99;strokeColor=#36393d;" vertex="1" parent="1">
          <mxGeometry x="530" y="884" width="80" height="50" as="geometry" />
        </mxCell>
        <mxCell id="aOajQsP4-fKAeHu_HTNc-129" value="H264&lt;div&gt;软编解&lt;/div&gt;" style="rounded=1;whiteSpace=wrap;html=1;" vertex="1" parent="1">
          <mxGeometry x="620" y="942" width="80" height="50" as="geometry" />
        </mxCell>
        <mxCell id="aOajQsP4-fKAeHu_HTNc-130" value="H265&lt;div&gt;硬编解&lt;/div&gt;" style="rounded=1;whiteSpace=wrap;html=1;dashed=1;" vertex="1" parent="1">
          <mxGeometry x="620" y="884" width="80" height="50" as="geometry" />
        </mxCell>
        <mxCell id="aOajQsP4-fKAeHu_HTNc-131" value="H264&lt;div&gt;硬编解&lt;/div&gt;" style="rounded=1;whiteSpace=wrap;html=1;fillColor=#ffcc99;strokeColor=#36393d;" vertex="1" parent="1">
          <mxGeometry x="530" y="942" width="80" height="50" as="geometry" />
        </mxCell>
        <mxCell id="aOajQsP4-fKAeHu_HTNc-132" value="GPU 服务器" style="rounded=1;whiteSpace=wrap;html=1;fillColor=#d80073;strokeColor=#A50040;fontColor=#ffffff;" vertex="1" parent="1">
          <mxGeometry x="238" y="420" width="97" height="40" as="geometry" />
        </mxCell>
        <mxCell id="aOajQsP4-fKAeHu_HTNc-133" value="H264&lt;div&gt;硬编解&lt;/div&gt;" style="rounded=1;whiteSpace=wrap;html=1;fillColor=#ffcc99;strokeColor=#36393d;" vertex="1" parent="1">
          <mxGeometry x="300" y="580" width="80" height="50" as="geometry" />
        </mxCell>
        <mxCell id="aOajQsP4-fKAeHu_HTNc-134" value="H265&lt;div&gt;硬编解&lt;/div&gt;" style="rounded=1;whiteSpace=wrap;html=1;fillColor=#ffcc99;strokeColor=#36393d;" vertex="1" parent="1">
          <mxGeometry x="198" y="580" width="80" height="50" as="geometry" />
        </mxCell>
        <mxCell id="aOajQsP4-fKAeHu_HTNc-144" value="" style="endArrow=classic;html=1;rounded=0;exitX=1;exitY=0.75;exitDx=0;exitDy=0;entryX=-0.016;entryY=0.131;entryDx=0;entryDy=0;entryPerimeter=0;strokeWidth=2;" edge="1" parent="1" source="aOajQsP4-fKAeHu_HTNc-80" target="aOajQsP4-fKAeHu_HTNc-127">
          <mxGeometry width="50" height="50" relative="1" as="geometry">
            <mxPoint x="440" y="670" as="sourcePoint" />
            <mxPoint x="490" y="620" as="targetPoint" />
          </mxGeometry>
        </mxCell>
        <mxCell id="aOajQsP4-fKAeHu_HTNc-145" value="" style="endArrow=classic;startArrow=classic;html=1;rounded=0;strokeWidth=2;" edge="1" parent="1">
          <mxGeometry width="50" height="50" relative="1" as="geometry">
            <mxPoint x="248" y="700" as="sourcePoint" />
            <mxPoint x="248" y="630" as="targetPoint" />
          </mxGeometry>
        </mxCell>
        <mxCell id="aOajQsP4-fKAeHu_HTNc-146" value="" style="endArrow=classic;startArrow=classic;html=1;rounded=0;exitX=0.598;exitY=1.01;exitDx=0;exitDy=0;exitPerimeter=0;strokeWidth=2;" edge="1" parent="1">
          <mxGeometry width="50" height="50" relative="1" as="geometry">
            <mxPoint x="335.98" y="702.9000000000001" as="sourcePoint" />
            <mxPoint x="335" y="630" as="targetPoint" />
          </mxGeometry>
        </mxCell>
        <mxCell id="aOajQsP4-fKAeHu_HTNc-147" value="" style="endArrow=classic;startArrow=classic;html=1;rounded=0;entryX=0.122;entryY=0.975;entryDx=0;entryDy=0;entryPerimeter=0;strokeWidth=2;" edge="1" parent="1" target="aOajQsP4-fKAeHu_HTNc-99">
          <mxGeometry width="50" height="50" relative="1" as="geometry">
            <mxPoint x="250" y="580" as="sourcePoint" />
            <mxPoint x="254" y="511" as="targetPoint" />
          </mxGeometry>
        </mxCell>
        <mxCell id="aOajQsP4-fKAeHu_HTNc-148" value="" style="endArrow=classic;startArrow=classic;html=1;rounded=0;exitX=0.4;exitY=0.04;exitDx=0;exitDy=0;exitPerimeter=0;entryX=0.939;entryY=1.025;entryDx=0;entryDy=0;entryPerimeter=0;strokeWidth=2;" edge="1" parent="1" source="aOajQsP4-fKAeHu_HTNc-133" target="aOajQsP4-fKAeHu_HTNc-99">
          <mxGeometry width="50" height="50" relative="1" as="geometry">
            <mxPoint x="440" y="670" as="sourcePoint" />
            <mxPoint x="490" y="620" as="targetPoint" />
          </mxGeometry>
        </mxCell>
        <mxCell id="aOajQsP4-fKAeHu_HTNc-149" value="" style="endArrow=classic;startArrow=classic;html=1;rounded=0;exitX=0.39;exitY=0.008;exitDx=0;exitDy=0;exitPerimeter=0;strokeWidth=2;" edge="1" parent="1" source="aOajQsP4-fKAeHu_HTNc-80">
          <mxGeometry width="50" height="50" relative="1" as="geometry">
            <mxPoint x="198" y="782" as="sourcePoint" />
            <mxPoint x="248" y="732" as="targetPoint" />
          </mxGeometry>
        </mxCell>
        <mxCell id="aOajQsP4-fKAeHu_HTNc-150" value="" style="endArrow=classic;startArrow=classic;html=1;rounded=0;exitX=0.39;exitY=0.008;exitDx=0;exitDy=0;exitPerimeter=0;strokeWidth=2;" edge="1" parent="1">
          <mxGeometry width="50" height="50" relative="1" as="geometry">
            <mxPoint x="336" y="811" as="sourcePoint" />
            <mxPoint x="336" y="732" as="targetPoint" />
          </mxGeometry>
        </mxCell>
        <mxCell id="aOajQsP4-fKAeHu_HTNc-151" value="" style="endArrow=classic;html=1;rounded=0;exitX=1;exitY=0.75;exitDx=0;exitDy=0;entryX=0;entryY=0.75;entryDx=0;entryDy=0;strokeWidth=2;" edge="1" parent="1" target="aOajQsP4-fKAeHu_HTNc-127">
          <mxGeometry width="50" height="50" relative="1" as="geometry">
            <mxPoint x="431" y="921" as="sourcePoint" />
            <mxPoint x="517" y="920" as="targetPoint" />
            <Array as="points">
              <mxPoint x="480" y="920" />
              <mxPoint x="500" y="920" />
              <mxPoint x="500" y="980" />
            </Array>
          </mxGeometry>
        </mxCell>
        <mxCell id="aOajQsP4-fKAeHu_HTNc-152" value="" style="endArrow=classic;html=1;rounded=0;exitX=0.995;exitY=0.085;exitDx=0;exitDy=0;exitPerimeter=0;entryX=0.007;entryY=0.692;entryDx=0;entryDy=0;entryPerimeter=0;strokeWidth=2;" edge="1" parent="1" source="aOajQsP4-fKAeHu_HTNc-122" target="aOajQsP4-fKAeHu_HTNc-80">
          <mxGeometry width="50" height="50" relative="1" as="geometry">
            <mxPoint x="320" y="670" as="sourcePoint" />
            <mxPoint x="370" y="620" as="targetPoint" />
          </mxGeometry>
        </mxCell>
        <mxCell id="aOajQsP4-fKAeHu_HTNc-153" value="" style="rounded=1;whiteSpace=wrap;html=1;" vertex="1" parent="1">
          <mxGeometry x="-323" y="1580" width="1220" height="310" as="geometry" />
        </mxCell>
        <object label="Actor" caller="initiator" id="aOajQsP4-fKAeHu_HTNc-155">
          <mxCell style="shape=umlActor;verticalLabelPosition=bottom;verticalAlign=top;html=1;outlineConnect=0;" vertex="1" parent="1">
            <mxGeometry x="-230" y="1680" width="30" height="60" as="geometry" />
          </mxCell>
        </object>
        <mxCell id="aOajQsP4-fKAeHu_HTNc-156" value="Actor" style="shape=umlActor;verticalLabelPosition=bottom;verticalAlign=top;html=1;outlineConnect=0;" vertex="1" parent="1">
          <mxGeometry x="830" y="1680" width="30" height="60" as="geometry" />
        </mxCell>
        <mxCell id="aOajQsP4-fKAeHu_HTNc-157" value="SFU&lt;div&gt;ROOMID&lt;/div&gt;" style="rounded=1;whiteSpace=wrap;html=1;fillColor=#f9f7ed;strokeColor=#36393d;" vertex="1" parent="1">
          <mxGeometry x="141" y="1650" width="300" height="120" as="geometry" />
        </mxCell>
        <mxCell id="aOajQsP4-fKAeHu_HTNc-158" value="initiator&lt;div&gt;invite&lt;/div&gt;" style="text;html=1;align=center;verticalAlign=middle;whiteSpace=wrap;rounded=0;" vertex="1" parent="1">
          <mxGeometry x="-290" y="1600" width="100" height="90" as="geometry" />
        </mxCell>
        <mxCell id="aOajQsP4-fKAeHu_HTNc-163" value="" style="rounded=1;whiteSpace=wrap;html=1;fillColor=#f9f7ed;strokeColor=#36393d;" vertex="1" parent="1">
          <mxGeometry x="-139" y="1722" width="190" height="130" as="geometry" />
        </mxCell>
        <mxCell id="aOajQsP4-fKAeHu_HTNc-164" value="H265&lt;div&gt;软编解&lt;/div&gt;" style="rounded=1;whiteSpace=wrap;html=1;fillColor=#ffcc99;strokeColor=#36393d;" vertex="1" parent="1">
          <mxGeometry x="-129" y="1724" width="80" height="50" as="geometry" />
        </mxCell>
        <mxCell id="aOajQsP4-fKAeHu_HTNc-165" value="H264&lt;div&gt;软编解&lt;/div&gt;" style="rounded=1;whiteSpace=wrap;html=1;" vertex="1" parent="1">
          <mxGeometry x="-129" y="1782" width="80" height="50" as="geometry" />
        </mxCell>
        <mxCell id="aOajQsP4-fKAeHu_HTNc-166" value="H265&lt;div&gt;硬编解&lt;/div&gt;" style="rounded=1;whiteSpace=wrap;html=1;fillColor=#ffcc99;strokeColor=#36393d;" vertex="1" parent="1">
          <mxGeometry x="-39" y="1724" width="80" height="50" as="geometry" />
        </mxCell>
        <mxCell id="aOajQsP4-fKAeHu_HTNc-167" value="H264&lt;div&gt;硬编解&lt;/div&gt;" style="rounded=1;whiteSpace=wrap;html=1;" vertex="1" parent="1">
          <mxGeometry x="-39" y="1782" width="80" height="50" as="geometry" />
        </mxCell>
        <mxCell id="aOajQsP4-fKAeHu_HTNc-168" value="" style="rounded=1;whiteSpace=wrap;html=1;fillColor=#f9f7ed;strokeColor=#36393d;" vertex="1" parent="1">
          <mxGeometry x="530" y="1722" width="190" height="130" as="geometry" />
        </mxCell>
        <mxCell id="aOajQsP4-fKAeHu_HTNc-169" value="H265&lt;div&gt;软编解&lt;/div&gt;" style="rounded=1;whiteSpace=wrap;html=1;fillColor=#ffcc99;strokeColor=#36393d;" vertex="1" parent="1">
          <mxGeometry x="540" y="1724" width="80" height="50" as="geometry" />
        </mxCell>
        <mxCell id="aOajQsP4-fKAeHu_HTNc-170" value="H264&lt;div&gt;软编解&lt;/div&gt;" style="rounded=1;whiteSpace=wrap;html=1;" vertex="1" parent="1">
          <mxGeometry x="630" y="1782" width="80" height="50" as="geometry" />
        </mxCell>
        <mxCell id="aOajQsP4-fKAeHu_HTNc-171" value="H265&lt;div&gt;硬编解&lt;/div&gt;" style="rounded=1;whiteSpace=wrap;html=1;dashed=1;" vertex="1" parent="1">
          <mxGeometry x="630" y="1724" width="80" height="50" as="geometry" />
        </mxCell>
        <mxCell id="aOajQsP4-fKAeHu_HTNc-172" value="H264&lt;div&gt;硬编解&lt;/div&gt;" style="rounded=1;whiteSpace=wrap;html=1;fillColor=#ffcc99;strokeColor=#36393d;" vertex="1" parent="1">
          <mxGeometry x="540" y="1782" width="80" height="50" as="geometry" />
        </mxCell>
        <mxCell id="aOajQsP4-fKAeHu_HTNc-176" value="" style="endArrow=classic;html=1;rounded=0;exitX=1;exitY=0.25;exitDx=0;exitDy=0;entryX=-0.007;entryY=0.867;entryDx=0;entryDy=0;entryPerimeter=0;" edge="1" parent="1" source="aOajQsP4-fKAeHu_HTNc-163" target="aOajQsP4-fKAeHu_HTNc-157">
          <mxGeometry width="50" height="50" relative="1" as="geometry">
            <mxPoint x="330" y="1510" as="sourcePoint" />
            <mxPoint x="380" y="1460" as="targetPoint" />
          </mxGeometry>
        </mxCell>
        <mxCell id="aOajQsP4-fKAeHu_HTNc-177" value="" style="endArrow=classic;html=1;rounded=0;exitX=1;exitY=0.75;exitDx=0;exitDy=0;entryX=-0.016;entryY=0.131;entryDx=0;entryDy=0;entryPerimeter=0;" edge="1" parent="1" source="aOajQsP4-fKAeHu_HTNc-157" target="aOajQsP4-fKAeHu_HTNc-168">
          <mxGeometry width="50" height="50" relative="1" as="geometry">
            <mxPoint x="450" y="1510" as="sourcePoint" />
            <mxPoint x="500" y="1460" as="targetPoint" />
          </mxGeometry>
        </mxCell>
        <mxCell id="aOajQsP4-fKAeHu_HTNc-184" value="" style="endArrow=classic;html=1;rounded=0;exitX=1;exitY=0.75;exitDx=0;exitDy=0;entryX=-0.016;entryY=0.131;entryDx=0;entryDy=0;entryPerimeter=0;" edge="1" parent="1">
          <mxGeometry width="50" height="50" relative="1" as="geometry">
            <mxPoint x="441" y="1761" as="sourcePoint" />
            <mxPoint x="527" y="1760" as="targetPoint" />
          </mxGeometry>
        </mxCell>
        <mxCell id="aOajQsP4-fKAeHu_HTNc-185" value="" style="endArrow=classic;html=1;rounded=0;exitX=0.995;exitY=0.085;exitDx=0;exitDy=0;exitPerimeter=0;entryX=0.007;entryY=0.692;entryDx=0;entryDy=0;entryPerimeter=0;" edge="1" parent="1" source="aOajQsP4-fKAeHu_HTNc-163" target="aOajQsP4-fKAeHu_HTNc-157">
          <mxGeometry width="50" height="50" relative="1" as="geometry">
            <mxPoint x="330" y="1510" as="sourcePoint" />
            <mxPoint x="380" y="1460" as="targetPoint" />
          </mxGeometry>
        </mxCell>
        <mxCell id="aOajQsP4-fKAeHu_HTNc-188" value="" style="endArrow=classic;html=1;rounded=0;entryX=0.098;entryY=1.033;entryDx=0;entryDy=0;entryPerimeter=0;exitX=0.5;exitY=0;exitDx=0;exitDy=0;fillColor=#e51400;strokeColor=#B20000;" edge="1" parent="1" source="aOajQsP4-fKAeHu_HTNc-122" target="aOajQsP4-fKAeHu_HTNc-90">
          <mxGeometry width="50" height="50" relative="1" as="geometry">
            <mxPoint x="-100" y="800" as="sourcePoint" />
            <mxPoint x="-50" y="750" as="targetPoint" />
            <Array as="points">
              <mxPoint x="-54" y="820" />
              <mxPoint x="82" y="820" />
            </Array>
          </mxGeometry>
        </mxCell>
        <mxCell id="aOajQsP4-fKAeHu_HTNc-189" value="" style="endArrow=classic;html=1;rounded=0;exitX=0.1;exitY=-0.133;exitDx=0;exitDy=0;exitPerimeter=0;entryX=0.5;entryY=1;entryDx=0;entryDy=0;fillColor=#e51400;strokeColor=#B20000;" edge="1" parent="1" source="aOajQsP4-fKAeHu_HTNc-90" target="aOajQsP4-fKAeHu_HTNc-91">
          <mxGeometry width="50" height="50" relative="1" as="geometry">
            <mxPoint x="320" y="730" as="sourcePoint" />
            <mxPoint x="370" y="680" as="targetPoint" />
          </mxGeometry>
        </mxCell>
        <mxCell id="aOajQsP4-fKAeHu_HTNc-190" value="" style="endArrow=classic;html=1;rounded=0;exitX=0.5;exitY=0;exitDx=0;exitDy=0;entryX=0.155;entryY=1.033;entryDx=0;entryDy=0;entryPerimeter=0;fillColor=#e51400;strokeColor=#B20000;" edge="1" parent="1" source="aOajQsP4-fKAeHu_HTNc-128" target="aOajQsP4-fKAeHu_HTNc-90">
          <mxGeometry width="50" height="50" relative="1" as="geometry">
            <mxPoint x="320" y="730" as="sourcePoint" />
            <mxPoint x="370" y="680" as="targetPoint" />
            <Array as="points">
              <mxPoint x="570" y="780" />
              <mxPoint x="111" y="780" />
            </Array>
          </mxGeometry>
        </mxCell>
        <mxCell id="aOajQsP4-fKAeHu_HTNc-191" value="" style="endArrow=classic;html=1;rounded=0;exitX=0.75;exitY=0;exitDx=0;exitDy=0;entryX=0;entryY=0.5;entryDx=0;entryDy=0;fillColor=#e51400;strokeColor=#B20000;" edge="1" parent="1" source="aOajQsP4-fKAeHu_HTNc-91" target="aOajQsP4-fKAeHu_HTNc-99">
          <mxGeometry width="50" height="50" relative="1" as="geometry">
            <mxPoint x="320" y="730" as="sourcePoint" />
            <mxPoint x="370" y="680" as="targetPoint" />
            <Array as="points">
              <mxPoint x="107" y="490" />
            </Array>
          </mxGeometry>
        </mxCell>
        <mxCell id="aOajQsP4-fKAeHu_HTNc-192" value="" style="endArrow=classic;html=1;rounded=0;fillColor=#e51400;strokeColor=#B20000;" edge="1" parent="1">
          <mxGeometry width="50" height="50" relative="1" as="geometry">
            <mxPoint x="160" y="812" as="sourcePoint" />
            <mxPoint x="160" y="730" as="targetPoint" />
          </mxGeometry>
        </mxCell>
        <mxCell id="aOajQsP4-fKAeHu_HTNc-194" value="" style="endArrow=classic;html=1;rounded=0;exitX=0.25;exitY=1;exitDx=0;exitDy=0;entryX=1;entryY=0.5;entryDx=0;entryDy=0;fillColor=#e51400;strokeColor=#B20000;" edge="1" parent="1" source="aOajQsP4-fKAeHu_HTNc-74" target="aOajQsP4-fKAeHu_HTNc-91">
          <mxGeometry width="50" height="50" relative="1" as="geometry">
            <mxPoint x="320" y="730" as="sourcePoint" />
            <mxPoint x="370" y="680" as="targetPoint" />
            <Array as="points">
              <mxPoint x="160" y="640" />
            </Array>
          </mxGeometry>
        </mxCell>
        <mxCell id="aOajQsP4-fKAeHu_HTNc-195" value="Producer" style="rounded=1;whiteSpace=wrap;html=1;fillColor=#f8cecc;strokeColor=#b85450;" vertex="1" parent="1">
          <mxGeometry x="530" width="60" height="20" as="geometry" />
        </mxCell>
        <mxCell id="aOajQsP4-fKAeHu_HTNc-197" value="consumer" style="rounded=1;whiteSpace=wrap;html=1;fillColor=#f8cecc;strokeColor=#b85450;" vertex="1" parent="1">
          <mxGeometry x="530" y="20" width="60" height="20" as="geometry" />
        </mxCell>
        <mxCell id="aOajQsP4-fKAeHu_HTNc-198" value="Producer" style="rounded=1;whiteSpace=wrap;html=1;fillColor=#f8cecc;strokeColor=#b85450;" vertex="1" parent="1">
          <mxGeometry x="-39" y="-4" width="60" height="21" as="geometry" />
        </mxCell>
        <mxCell id="aOajQsP4-fKAeHu_HTNc-200" value="" style="endArrow=classic;html=1;rounded=0;exitX=0.5;exitY=1;exitDx=0;exitDy=0;entryX=0.429;entryY=1;entryDx=0;entryDy=0;entryPerimeter=0;strokeWidth=2;" edge="1" parent="1" source="aOajQsP4-fKAeHu_HTNc-10" target="aOajQsP4-fKAeHu_HTNc-199">
          <mxGeometry width="50" height="50" relative="1" as="geometry">
            <mxPoint x="-70" y="-10" as="sourcePoint" />
            <mxPoint x="519" y="-10" as="targetPoint" />
            <Array as="points">
              <mxPoint x="-70" y="40" />
            </Array>
          </mxGeometry>
        </mxCell>
        <mxCell id="aOajQsP4-fKAeHu_HTNc-201" value="Transport" style="edgeLabel;html=1;align=center;verticalAlign=middle;resizable=0;points=[];" vertex="1" connectable="0" parent="aOajQsP4-fKAeHu_HTNc-200">
          <mxGeometry x="-0.0029" relative="1" as="geometry">
            <mxPoint as="offset" />
          </mxGeometry>
        </mxCell>
        <mxCell id="aOajQsP4-fKAeHu_HTNc-199" value="consumer" style="rounded=1;whiteSpace=wrap;html=1;fillColor=#f8cecc;strokeColor=#b85450;" vertex="1" parent="1">
          <mxGeometry x="-39" y="17" width="60" height="21" as="geometry" />
        </mxCell>
        <mxCell id="aOajQsP4-fKAeHu_HTNc-202" value="connect" style="rounded=1;whiteSpace=wrap;html=1;fillColor=#f8cecc;strokeColor=#b85450;" vertex="1" parent="1">
          <mxGeometry x="-39" y="49" width="60" height="21" as="geometry" />
        </mxCell>
        <mxCell id="aOajQsP4-fKAeHu_HTNc-203" value="connect" style="rounded=1;whiteSpace=wrap;html=1;fillColor=#f8cecc;strokeColor=#b85450;" vertex="1" parent="1">
          <mxGeometry x="530" y="49" width="60" height="21" as="geometry" />
        </mxCell>
        <mxCell id="aOajQsP4-fKAeHu_HTNc-204" value="" style="rounded=1;whiteSpace=wrap;html=1;" vertex="1" parent="1">
          <mxGeometry x="-317.5" y="2010" width="1197" height="830" as="geometry" />
        </mxCell>
        <mxCell id="aOajQsP4-fKAeHu_HTNc-205" value="" style="rounded=1;whiteSpace=wrap;html=1;fillColor=#eeeeee;strokeColor=#36393d;" vertex="1" parent="1">
          <mxGeometry x="24.5" y="2030" width="510" height="290" as="geometry" />
        </mxCell>
        <object label="Actor" caller="initiator" id="aOajQsP4-fKAeHu_HTNc-206">
          <mxCell style="shape=umlActor;verticalLabelPosition=bottom;verticalAlign=top;html=1;outlineConnect=0;" vertex="1" parent="1">
            <mxGeometry x="-247.5" y="2460" width="30" height="60" as="geometry" />
          </mxCell>
        </object>
        <mxCell id="aOajQsP4-fKAeHu_HTNc-207" value="Actor" style="shape=umlActor;verticalLabelPosition=bottom;verticalAlign=top;html=1;outlineConnect=0;" vertex="1" parent="1">
          <mxGeometry x="780" y="2490" width="30" height="60" as="geometry" />
        </mxCell>
        <mxCell id="aOajQsP4-fKAeHu_HTNc-208" value="SFU&lt;div&gt;ROOMID&lt;/div&gt;" style="rounded=1;whiteSpace=wrap;html=1;fillColor=#eeeeee;strokeColor=#36393d;" vertex="1" parent="1">
          <mxGeometry x="123.5" y="2430" width="300" height="120" as="geometry" />
        </mxCell>
        <mxCell id="aOajQsP4-fKAeHu_HTNc-209" value="initiator&lt;div&gt;invite&lt;/div&gt;" style="text;html=1;align=center;verticalAlign=middle;whiteSpace=wrap;rounded=0;" vertex="1" parent="1">
          <mxGeometry x="-307.5" y="2380" width="100" height="90" as="geometry" />
        </mxCell>
        <mxCell id="aOajQsP4-fKAeHu_HTNc-210" value="网关 Nginx" style="rounded=1;whiteSpace=wrap;html=1;fillColor=#eeeeee;strokeColor=#36393d;" vertex="1" parent="1">
          <mxGeometry x="24.5" y="2322" width="510" height="30" as="geometry" />
        </mxCell>
        <mxCell id="aOajQsP4-fKAeHu_HTNc-211" value="signal server&lt;div&gt;ROOMID&lt;/div&gt;" style="rounded=1;whiteSpace=wrap;html=1;fillColor=#fad7ac;strokeColor=#b46504;" vertex="1" parent="1">
          <mxGeometry x="24.5" y="2230" width="100" height="60" as="geometry" />
        </mxCell>
        <mxCell id="aOajQsP4-fKAeHu_HTNc-212" value="&lt;div&gt;实时转码服务&lt;/div&gt;&lt;div&gt;roomi&lt;span style=&quot;color: rgba(0, 0, 0, 0); font-family: monospace; font-size: 0px; text-align: start; text-wrap: nowrap; background-color: initial;&quot;&gt;%3CmxGraphModel%3E%3Croot%3E%3CmxCell%20id%3D%220%22%2F%3E%3CmxCell%20id%3D%221%22%20parent%3D%220%22%2F%3E%3CmxCell%20id%3D%222%22%20value%3D%22%E5%88%86%E5%B8%83%E5%BC%8F%E5%AD%98%E5%82%A8%26lt%3Bdiv%26gt%3Broomid%26lt%3B%2Fdiv%26gt%3B%22%20style%3D%22rounded%3D1%3BwhiteSpace%3Dwrap%3Bhtml%3D1%3B%22%20vertex%3D%221%22%20parent%3D%221%22%3E%3CmxGeometry%20x%3D%2210%22%20y%3D%22-420%22%20width%3D%2290%22%20height%3D%2240%22%20as%3D%22geometry%22%2F%3E%3C%2FmxCell%3E%3C%2Froot%3E%3C%2FmxGraphModel%3E&lt;/span&gt;&lt;span style=&quot;background-color: initial;&quot;&gt;d/&lt;/span&gt;&lt;/div&gt;" style="rounded=1;whiteSpace=wrap;html=1;fillColor=#ffcc99;strokeColor=#36393d;" vertex="1" parent="1">
          <mxGeometry x="230.5" y="2090" width="98" height="40" as="geometry" />
        </mxCell>
        <mxCell id="aOajQsP4-fKAeHu_HTNc-213" value="深圳" style="rounded=1;whiteSpace=wrap;html=1;fillColor=#ffcc99;strokeColor=#36393d;" vertex="1" parent="1">
          <mxGeometry x="392.5" y="2050" width="120" height="60" as="geometry" />
        </mxCell>
        <mxCell id="aOajQsP4-fKAeHu_HTNc-214" value="" style="rounded=1;whiteSpace=wrap;html=1;fillColor=#eeeeee;strokeColor=#36393d;" vertex="1" parent="1">
          <mxGeometry x="-156.5" y="2502" width="190" height="130" as="geometry" />
        </mxCell>
        <mxCell id="aOajQsP4-fKAeHu_HTNc-215" value="H265&lt;div&gt;&lt;br&gt;&lt;/div&gt;" style="rounded=1;whiteSpace=wrap;html=1;fillColor=#ffcc99;strokeColor=#36393d;" vertex="1" parent="1">
          <mxGeometry x="-146.5" y="2504" width="80" height="50" as="geometry" />
        </mxCell>
        <mxCell id="aOajQsP4-fKAeHu_HTNc-216" value="H264&lt;div&gt;软编解&lt;/div&gt;" style="rounded=1;whiteSpace=wrap;html=1;" vertex="1" parent="1">
          <mxGeometry x="-146.5" y="2562" width="80" height="50" as="geometry" />
        </mxCell>
        <mxCell id="aOajQsP4-fKAeHu_HTNc-217" value="H264-SVC&lt;div&gt;&lt;br&gt;&lt;/div&gt;" style="rounded=1;whiteSpace=wrap;html=1;fillColor=#ffcc99;strokeColor=#36393d;" vertex="1" parent="1">
          <mxGeometry x="-56.5" y="2504" width="80" height="50" as="geometry" />
        </mxCell>
        <mxCell id="aOajQsP4-fKAeHu_HTNc-218" value="H264&lt;div&gt;硬编解&lt;/div&gt;" style="rounded=1;whiteSpace=wrap;html=1;" vertex="1" parent="1">
          <mxGeometry x="-56.5" y="2562" width="80" height="50" as="geometry" />
        </mxCell>
        <mxCell id="aOajQsP4-fKAeHu_HTNc-219" value="" style="rounded=1;whiteSpace=wrap;html=1;fillColor=#eeeeee;strokeColor=#36393d;" vertex="1" parent="1">
          <mxGeometry x="512.5" y="2502" width="190" height="130" as="geometry" />
        </mxCell>
        <mxCell id="aOajQsP4-fKAeHu_HTNc-221" value="H264&lt;div&gt;软编解&lt;/div&gt;" style="rounded=1;whiteSpace=wrap;html=1;" vertex="1" parent="1">
          <mxGeometry x="612.5" y="2562" width="80" height="50" as="geometry" />
        </mxCell>
        <mxCell id="aOajQsP4-fKAeHu_HTNc-223" value="H264&lt;div&gt;硬编解&lt;/div&gt;" style="rounded=1;whiteSpace=wrap;html=1;fillColor=#ffcc99;strokeColor=#36393d;" vertex="1" parent="1">
          <mxGeometry x="522.5" y="2562" width="80" height="50" as="geometry" />
        </mxCell>
        <mxCell id="aOajQsP4-fKAeHu_HTNc-224" value="GPU 服务器" style="rounded=1;whiteSpace=wrap;html=1;fillColor=#d80073;strokeColor=#A50040;fontColor=#ffffff;" vertex="1" parent="1">
          <mxGeometry x="230.5" y="2040" width="97" height="40" as="geometry" />
        </mxCell>
        <mxCell id="aOajQsP4-fKAeHu_HTNc-225" value="H264&lt;div&gt;硬编解&lt;/div&gt;" style="rounded=1;whiteSpace=wrap;html=1;fillColor=#ffcc99;strokeColor=#36393d;" vertex="1" parent="1">
          <mxGeometry x="292.5" y="2200" width="80" height="50" as="geometry" />
        </mxCell>
        <mxCell id="aOajQsP4-fKAeHu_HTNc-226" value="H265&lt;div&gt;硬编解&lt;/div&gt;" style="rounded=1;whiteSpace=wrap;html=1;fillColor=#ffcc99;strokeColor=#36393d;" vertex="1" parent="1">
          <mxGeometry x="190.5" y="2200" width="80" height="50" as="geometry" />
        </mxCell>
        <mxCell id="aOajQsP4-fKAeHu_HTNc-227" value="" style="endArrow=classic;html=1;rounded=0;exitX=1;exitY=0.75;exitDx=0;exitDy=0;entryX=-0.016;entryY=0.131;entryDx=0;entryDy=0;entryPerimeter=0;strokeWidth=2;" edge="1" parent="1" source="aOajQsP4-fKAeHu_HTNc-208" target="aOajQsP4-fKAeHu_HTNc-219">
          <mxGeometry width="50" height="50" relative="1" as="geometry">
            <mxPoint x="432.5" y="2290" as="sourcePoint" />
            <mxPoint x="482.5" y="2240" as="targetPoint" />
          </mxGeometry>
        </mxCell>
        <mxCell id="aOajQsP4-fKAeHu_HTNc-251" value="1080P" style="edgeLabel;html=1;align=center;verticalAlign=middle;resizable=0;points=[];" vertex="1" connectable="0" parent="aOajQsP4-fKAeHu_HTNc-227">
          <mxGeometry x="0.1283" y="-1" relative="1" as="geometry">
            <mxPoint as="offset" />
          </mxGeometry>
        </mxCell>
        <mxCell id="aOajQsP4-fKAeHu_HTNc-230" value="" style="endArrow=classic;startArrow=classic;html=1;rounded=0;entryX=0.122;entryY=0.975;entryDx=0;entryDy=0;entryPerimeter=0;strokeWidth=2;" edge="1" parent="1" target="aOajQsP4-fKAeHu_HTNc-212">
          <mxGeometry width="50" height="50" relative="1" as="geometry">
            <mxPoint x="242.5" y="2200" as="sourcePoint" />
            <mxPoint x="246.5" y="2131" as="targetPoint" />
          </mxGeometry>
        </mxCell>
        <mxCell id="aOajQsP4-fKAeHu_HTNc-231" value="" style="endArrow=classic;startArrow=classic;html=1;rounded=0;exitX=0.4;exitY=0.04;exitDx=0;exitDy=0;exitPerimeter=0;entryX=0.939;entryY=1.025;entryDx=0;entryDy=0;entryPerimeter=0;strokeWidth=2;" edge="1" parent="1" source="aOajQsP4-fKAeHu_HTNc-225" target="aOajQsP4-fKAeHu_HTNc-212">
          <mxGeometry width="50" height="50" relative="1" as="geometry">
            <mxPoint x="432.5" y="2290" as="sourcePoint" />
            <mxPoint x="482.5" y="2240" as="targetPoint" />
          </mxGeometry>
        </mxCell>
        <mxCell id="aOajQsP4-fKAeHu_HTNc-235" value="" style="endArrow=classic;html=1;rounded=0;exitX=0.995;exitY=0.085;exitDx=0;exitDy=0;exitPerimeter=0;entryX=0.007;entryY=0.692;entryDx=0;entryDy=0;entryPerimeter=0;strokeWidth=2;" edge="1" parent="1" source="aOajQsP4-fKAeHu_HTNc-214" target="aOajQsP4-fKAeHu_HTNc-208">
          <mxGeometry width="50" height="50" relative="1" as="geometry">
            <mxPoint x="312.5" y="2290" as="sourcePoint" />
            <mxPoint x="362.5" y="2240" as="targetPoint" />
          </mxGeometry>
        </mxCell>
        <mxCell id="aOajQsP4-fKAeHu_HTNc-250" value="1080P" style="edgeLabel;html=1;align=center;verticalAlign=middle;resizable=0;points=[];" vertex="1" connectable="0" parent="aOajQsP4-fKAeHu_HTNc-235">
          <mxGeometry x="0.1703" y="-1" relative="1" as="geometry">
            <mxPoint as="offset" />
          </mxGeometry>
        </mxCell>
        <mxCell id="aOajQsP4-fKAeHu_HTNc-236" value="" style="endArrow=classic;html=1;rounded=0;entryX=0.098;entryY=1.033;entryDx=0;entryDy=0;entryPerimeter=0;exitX=0.5;exitY=0;exitDx=0;exitDy=0;fillColor=#e51400;strokeColor=#B20000;" edge="1" parent="1" source="aOajQsP4-fKAeHu_HTNc-214" target="aOajQsP4-fKAeHu_HTNc-210">
          <mxGeometry width="50" height="50" relative="1" as="geometry">
            <mxPoint x="-107.5" y="2420" as="sourcePoint" />
            <mxPoint x="-57.5" y="2370" as="targetPoint" />
            <Array as="points">
              <mxPoint x="-61.5" y="2440" />
              <mxPoint x="74.5" y="2440" />
            </Array>
          </mxGeometry>
        </mxCell>
        <mxCell id="aOajQsP4-fKAeHu_HTNc-237" value="" style="endArrow=classic;html=1;rounded=0;exitX=0.1;exitY=-0.133;exitDx=0;exitDy=0;exitPerimeter=0;entryX=0.5;entryY=1;entryDx=0;entryDy=0;fillColor=#e51400;strokeColor=#B20000;" edge="1" parent="1" source="aOajQsP4-fKAeHu_HTNc-210" target="aOajQsP4-fKAeHu_HTNc-211">
          <mxGeometry width="50" height="50" relative="1" as="geometry">
            <mxPoint x="312.5" y="2350" as="sourcePoint" />
            <mxPoint x="362.5" y="2300" as="targetPoint" />
          </mxGeometry>
        </mxCell>
        <mxCell id="aOajQsP4-fKAeHu_HTNc-238" value="" style="endArrow=classic;html=1;rounded=0;exitX=0.5;exitY=0;exitDx=0;exitDy=0;entryX=0.155;entryY=1.033;entryDx=0;entryDy=0;entryPerimeter=0;fillColor=#e51400;strokeColor=#B20000;" edge="1" parent="1" target="aOajQsP4-fKAeHu_HTNc-210">
          <mxGeometry width="50" height="50" relative="1" as="geometry">
            <mxPoint x="562.5" y="2504" as="sourcePoint" />
            <mxPoint x="362.5" y="2300" as="targetPoint" />
            <Array as="points">
              <mxPoint x="562.5" y="2400" />
              <mxPoint x="103.5" y="2400" />
            </Array>
          </mxGeometry>
        </mxCell>
        <mxCell id="aOajQsP4-fKAeHu_HTNc-240" value="" style="endArrow=classic;html=1;rounded=0;fillColor=#e51400;strokeColor=#B20000;" edge="1" parent="1">
          <mxGeometry width="50" height="50" relative="1" as="geometry">
            <mxPoint x="152.5" y="2432" as="sourcePoint" />
            <mxPoint x="152.5" y="2350" as="targetPoint" />
          </mxGeometry>
        </mxCell>
        <mxCell id="aOajQsP4-fKAeHu_HTNc-241" value="" style="endArrow=classic;html=1;rounded=0;exitX=0.25;exitY=1;exitDx=0;exitDy=0;entryX=1;entryY=0.5;entryDx=0;entryDy=0;fillColor=#e51400;strokeColor=#B20000;" edge="1" parent="1" source="aOajQsP4-fKAeHu_HTNc-205" target="aOajQsP4-fKAeHu_HTNc-211">
          <mxGeometry width="50" height="50" relative="1" as="geometry">
            <mxPoint x="312.5" y="2350" as="sourcePoint" />
            <mxPoint x="362.5" y="2300" as="targetPoint" />
            <Array as="points">
              <mxPoint x="152.5" y="2260" />
            </Array>
          </mxGeometry>
        </mxCell>
        <mxCell id="aOajQsP4-fKAeHu_HTNc-242" value="H264-SVC&lt;div&gt;信令扩展&lt;br&gt;&lt;div&gt;&lt;br&gt;&lt;/div&gt;&lt;/div&gt;" style="rounded=1;whiteSpace=wrap;html=1;fillColor=#ffcc99;strokeColor=#36393d;" vertex="1" parent="1">
          <mxGeometry x="160" y="2475" width="80" height="50" as="geometry" />
        </mxCell>
        <mxCell id="aOajQsP4-fKAeHu_HTNc-243" value="Actor" style="shape=umlActor;verticalLabelPosition=bottom;verticalAlign=top;html=1;outlineConnect=0;" vertex="1" parent="1">
          <mxGeometry x="790" y="2730" width="30" height="60" as="geometry" />
        </mxCell>
        <mxCell id="aOajQsP4-fKAeHu_HTNc-244" value="" style="rounded=1;whiteSpace=wrap;html=1;fillColor=#eeeeee;strokeColor=#36393d;" vertex="1" parent="1">
          <mxGeometry x="512.5" y="2695" width="190" height="130" as="geometry" />
        </mxCell>
        <mxCell id="aOajQsP4-fKAeHu_HTNc-246" value="H264&lt;div&gt;软编解&lt;/div&gt;" style="rounded=1;whiteSpace=wrap;html=1;" vertex="1" parent="1">
          <mxGeometry x="612.5" y="2755" width="80" height="50" as="geometry" />
        </mxCell>
        <mxCell id="aOajQsP4-fKAeHu_HTNc-248" value="H264&lt;div&gt;硬编解&lt;/div&gt;" style="rounded=1;whiteSpace=wrap;html=1;fillColor=#ffcc99;strokeColor=#36393d;" vertex="1" parent="1">
          <mxGeometry x="522.5" y="2755" width="80" height="50" as="geometry" />
        </mxCell>
        <mxCell id="aOajQsP4-fKAeHu_HTNc-249" value="" style="endArrow=classic;html=1;rounded=0;exitX=0.75;exitY=1;exitDx=0;exitDy=0;entryX=0;entryY=0.5;entryDx=0;entryDy=0;strokeWidth=2;" edge="1" parent="1" source="aOajQsP4-fKAeHu_HTNc-208" target="aOajQsP4-fKAeHu_HTNc-244">
          <mxGeometry width="50" height="50" relative="1" as="geometry">
            <mxPoint x="320" y="2710" as="sourcePoint" />
            <mxPoint x="370" y="2660" as="targetPoint" />
            <Array as="points">
              <mxPoint x="350" y="2760" />
            </Array>
          </mxGeometry>
        </mxCell>
        <mxCell id="aOajQsP4-fKAeHu_HTNc-252" value="1080P" style="edgeLabel;html=1;align=center;verticalAlign=middle;resizable=0;points=[];" vertex="1" connectable="0" parent="aOajQsP4-fKAeHu_HTNc-249">
          <mxGeometry x="-0.49" y="-1" relative="1" as="geometry">
            <mxPoint as="offset" />
          </mxGeometry>
        </mxCell>
      </root>
    </mxGraphModel>
  </diagram>
</mxfile>
